<svg xmlns="http://www.w3.org/2000/svg" xmlns:xlink="http://www.w3.org/1999/xlink" width="500" zoomAndPan="magnify" viewBox="0 0 375 374.999991" height="500" preserveAspectRatio="xMidYMid meet" version="1.0"><defs><clipPath id="id1"><path d="M 146 10.535156 L 229.1875 10.535156 L 229.1875 342.035156 L 146 342.035156 Z M 146 10.535156 " clip-rule="nonzero"/></clipPath></defs><g clip-path="url(#id1)"><path fill="#000000" d="M 187.5625 93.410156 C 210.476562 93.410156 229.039062 74.867188 229.039062 51.972656 C 229.039062 29.078125 210.476562 10.535156 187.5625 10.535156 C 164.644531 10.535156 146.082031 29.078125 146.082031 51.972656 C 146.082031 74.867188 164.644531 93.410156 187.5625 93.410156 Z M 187.5625 134.847656 C 164.644531 134.847656 146.082031 153.390625 146.082031 176.285156 C 146.082031 199.179688 164.644531 217.722656 187.5625 217.722656 C 210.476562 217.722656 229.039062 199.179688 229.039062 176.285156 C 229.039062 153.390625 210.476562 134.847656 187.5625 134.847656 Z M 187.5625 259.160156 C 164.644531 259.160156 146.082031 277.703125 146.082031 300.597656 C 146.082031 323.492188 164.644531 342.035156 187.5625 342.035156 C 210.476562 342.035156 229.039062 323.492188 229.039062 300.597656 C 229.039062 277.703125 210.476562 259.160156 187.5625 259.160156 Z M 187.5625 259.160156 " fill-opacity="1" fill-rule="nonzero"/></g></svg>