<svg xmlns="http://www.w3.org/2000/svg" xmlns:xlink="http://www.w3.org/1999/xlink" width="500" zoomAndPan="magnify" viewBox="0 0 375 374.999991" height="500" preserveAspectRatio="xMidYMid meet" version="1.0"><defs><g/><clipPath id="id1"><path d="M 308.542969 282.863281 L 334.792969 282.863281 L 334.792969 309.113281 L 308.542969 309.113281 Z M 308.542969 282.863281 " clip-rule="nonzero"/></clipPath></defs><g fill="#000000" fill-opacity="1"><g transform="translate(187.488568, 337.29484)"><g/></g></g><path stroke-linecap="butt" transform="matrix(0.00000000000000023, -3.752805, 3.75, 0.00000000000000023, 48.773185, 366.509038)" fill="none" stroke-linejoin="miter" d="M 3.749605 0.0000672541 L 83.987506 0.0000672541 " stroke="#000000" stroke-width="1" stroke-opacity="1" stroke-miterlimit="4"/><path stroke-linecap="butt" transform="matrix(0.00000000000000023, -3.752805, 3.75, 0.00000000000000023, 48.773185, 366.509038)" fill="none" stroke-linejoin="miter" d="M 3.499792 0.0000672541 C 3.499792 0.0979839 3.490424 0.195901 3.471688 0.292776 C 3.451911 0.389651 3.423807 0.483401 3.386335 0.574026 C 3.347823 0.664651 3.302023 0.751109 3.246856 0.833401 C 3.19273 0.915692 3.130277 0.990692 3.060537 1.060484 C 2.990798 1.130276 2.914813 1.192776 2.833624 1.246942 C 2.751394 1.302151 2.665 1.347984 2.574443 1.385484 C 2.482845 1.424026 2.389165 1.452151 2.292362 1.470901 C 2.195559 1.490692 2.098757 1.500067 1.999872 1.500067 C 1.900988 1.500067 1.804186 1.490692 1.707383 1.470901 C 1.61058 1.452151 1.5169 1.424026 1.426343 1.385484 C 1.334745 1.347984 1.248351 1.302151 1.167162 1.246942 C 1.084932 1.192776 1.008947 1.130276 0.939208 1.060484 C 0.869468 0.990692 0.807015 0.915692 0.752889 0.833401 C 0.697721 0.751109 0.651922 0.664651 0.61445 0.574026 C 0.576978 0.483401 0.547834 0.389651 0.529098 0.292776 C 0.509321 0.195901 0.499953 0.0979839 0.499953 0.0000672541 C 0.499953 -0.0988911 0.509321 -0.195766 0.529098 -0.292641 C 0.547834 -0.389516 0.576978 -0.483266 0.61445 -0.573891 C 0.651922 -0.664516 0.697721 -0.750974 0.752889 -0.833266 C 0.807015 -0.915558 0.869468 -0.990558 0.939208 -1.060349 C 1.008947 -1.130141 1.084932 -1.192641 1.167162 -1.246808 C 1.248351 -1.302016 1.334745 -1.34785 1.426343 -1.38535 C 1.5169 -1.423891 1.61058 -1.452016 1.707383 -1.470766 C 1.804186 -1.490558 1.900988 -1.499933 1.999872 -1.499933 C 2.098757 -1.499933 2.195559 -1.490558 2.292362 -1.470766 C 2.389165 -1.452016 2.482845 -1.423891 2.574443 -1.38535 C 2.665 -1.34785 2.751394 -1.302016 2.833624 -1.246808 C 2.914813 -1.192641 2.990798 -1.130141 3.060537 -1.060349 C 3.130277 -0.990558 3.19273 -0.915558 3.246856 -0.833266 C 3.302023 -0.750974 3.347823 -0.664516 3.386335 -0.573891 C 3.423807 -0.483266 3.451911 -0.389516 3.471688 -0.292641 C 3.490424 -0.195766 3.499792 -0.0988911 3.499792 0.0000672541 Z M 3.499792 0.0000672541 " stroke="#000000" stroke-width="1" stroke-opacity="1" stroke-miterlimit="4"/><path stroke-linecap="butt" transform="matrix(0.00000000000000023, -3.752805, 3.75, 0.00000000000000023, 48.773185, 37.248762)" fill="none" stroke-linejoin="miter" d="M -0.499956 0.0000672541 C -0.499956 0.0979839 -0.509324 0.195901 -0.529101 0.292776 C -0.547837 0.389651 -0.576982 0.483401 -0.614454 0.574026 C -0.651926 0.664651 -0.697725 0.751109 -0.752892 0.833401 C -0.807018 0.915692 -0.869471 0.990692 -0.939211 1.060484 C -1.00895 1.130276 -1.084935 1.192776 -1.166125 1.246942 C -1.248355 1.302151 -1.334748 1.347984 -1.426347 1.385484 C -1.516904 1.424026 -1.610584 1.452151 -1.707386 1.470901 C -1.804189 1.490692 -1.900992 1.500067 -1.999876 1.500067 C -2.09876 1.500067 -2.195563 1.490692 -2.292365 1.470901 C -2.389168 1.452151 -2.482848 1.424026 -2.574446 1.385484 C -2.665003 1.347984 -2.751397 1.302151 -2.833627 1.246942 C -2.914817 1.192776 -2.990801 1.130276 -3.060541 1.060484 C -3.13028 0.990692 -3.192734 0.915692 -3.24686 0.833401 C -3.302027 0.751109 -3.347826 0.664651 -3.386339 0.574026 C -3.423811 0.483401 -3.451915 0.389651 -3.471692 0.292776 C -3.490428 0.195901 -3.499796 0.0979839 -3.499796 0.0000672541 C -3.499796 -0.0988911 -3.490428 -0.195766 -3.471692 -0.292641 C -3.451915 -0.389516 -3.423811 -0.483266 -3.386339 -0.573891 C -3.347826 -0.664516 -3.302027 -0.750974 -3.24686 -0.833266 C -3.192734 -0.915558 -3.13028 -0.990558 -3.060541 -1.060349 C -2.990801 -1.130141 -2.914817 -1.192641 -2.833627 -1.246808 C -2.751397 -1.302016 -2.665003 -1.34785 -2.574446 -1.38535 C -2.482848 -1.423891 -2.389168 -1.452016 -2.292365 -1.470766 C -2.195563 -1.490558 -2.09876 -1.499933 -1.999876 -1.499933 C -1.900992 -1.499933 -1.804189 -1.490558 -1.707386 -1.470766 C -1.610584 -1.452016 -1.516904 -1.423891 -1.426347 -1.38535 C -1.334748 -1.34785 -1.248355 -1.302016 -1.166125 -1.246808 C -1.084935 -1.192641 -1.00895 -1.130141 -0.939211 -1.060349 C -0.869471 -0.990558 -0.807018 -0.915558 -0.752892 -0.833266 C -0.697725 -0.750974 -0.651926 -0.664516 -0.614454 -0.573891 C -0.576982 -0.483266 -0.547837 -0.389516 -0.529101 -0.292641 C -0.509324 -0.195766 -0.499956 -0.0988911 -0.499956 0.0000672541 Z M -0.499956 0.0000672541 " stroke="#000000" stroke-width="1" stroke-opacity="1" stroke-miterlimit="4"/><path stroke-linecap="butt" transform="matrix(3.750393, 0, 0, 3.75, 19.891946, 334.669872)" fill="none" stroke-linejoin="miter" d="M 3.750296 -0.000507433 L 85.640668 -0.000507433 " stroke="#000000" stroke-width="1" stroke-opacity="1" stroke-miterlimit="4"/><path stroke-linecap="butt" transform="matrix(3.750393, 0, 0, 3.75, 19.891946, 334.669872)" fill="none" stroke-linejoin="miter" d="M 3.500322 -0.000507433 C 3.500322 0.0984509 3.489907 0.196368 3.471159 0.292201 C 3.452411 0.389076 3.423247 0.482826 3.385751 0.574493 C 3.348255 0.665118 3.302426 0.751576 3.247224 0.833868 C 3.192021 0.915118 3.130569 0.991159 3.060785 1.060951 C 2.991001 1.130743 2.914967 1.192201 2.833726 1.247409 C 2.751443 1.301576 2.664993 1.348451 2.574378 1.385951 C 2.482721 1.423451 2.388981 1.451576 2.292116 1.471368 C 2.196292 1.490118 2.098386 1.499493 2.00048 1.499493 C 1.901532 1.499493 1.803625 1.490118 1.707802 1.471368 C 1.610937 1.451576 1.517197 1.423451 1.42554 1.385951 C 1.334924 1.348451 1.248475 1.301576 1.166192 1.247409 C 1.084951 1.192201 1.008917 1.130743 0.939133 1.060951 C 0.869348 0.991159 0.807896 0.915118 0.752694 0.833868 C 0.698533 0.751576 0.651663 0.665118 0.614167 0.574493 C 0.576671 0.482826 0.548549 0.389076 0.528759 0.292201 C 0.510011 0.196368 0.499595 0.0984509 0.499595 -0.000507433 C 0.499595 -0.0984241 0.510011 -0.196341 0.528759 -0.292174 C 0.548549 -0.389049 0.576671 -0.482799 0.614167 -0.574466 C 0.651663 -0.665091 0.698533 -0.751549 0.752694 -0.833841 C 0.807896 -0.915091 0.869348 -0.991132 0.939133 -1.060924 C 1.008917 -1.130716 1.084951 -1.192174 1.166192 -1.247383 C 1.248475 -1.301549 1.334924 -1.348424 1.42554 -1.385924 C 1.517197 -1.423424 1.610937 -1.451549 1.707802 -1.471341 C 1.803625 -1.490091 1.901532 -1.500508 2.00048 -1.500508 C 2.098386 -1.500508 2.196292 -1.490091 2.292116 -1.471341 C 2.388981 -1.451549 2.482721 -1.423424 2.574378 -1.385924 C 2.664993 -1.348424 2.751443 -1.301549 2.833726 -1.247383 C 2.914967 -1.192174 2.991001 -1.130716 3.060785 -1.060924 C 3.130569 -0.991132 3.192021 -0.915091 3.247224 -0.833841 C 3.302426 -0.751549 3.348255 -0.665091 3.385751 -0.574466 C 3.423247 -0.482799 3.452411 -0.389049 3.471159 -0.292174 C 3.489907 -0.196341 3.500322 -0.0984241 3.500322 -0.000507433 Z M 3.500322 -0.000507433 " stroke="#000000" stroke-width="1" stroke-opacity="1" stroke-miterlimit="4"/><path stroke-linecap="butt" transform="matrix(3.750393, 0, 0, 3.75, 355.143204, 334.669872)" fill="none" stroke-linejoin="miter" d="M -0.499594 -0.000507433 C -0.499594 0.0984509 -0.510009 0.196368 -0.528757 0.292201 C -0.548547 0.389076 -0.576669 0.482826 -0.614165 0.574493 C -0.651661 0.665118 -0.698531 0.751576 -0.752692 0.833868 C -0.807895 0.915118 -0.869347 0.991159 -0.939131 1.060951 C -1.008915 1.130743 -1.084949 1.192201 -1.166191 1.247409 C -1.248474 1.301576 -1.334923 1.348451 -1.425538 1.385951 C -1.517195 1.423451 -1.610936 1.451576 -1.7078 1.471368 C -1.803624 1.490118 -1.90153 1.499493 -2.000478 1.499493 C -2.098384 1.499493 -2.196291 1.490118 -2.293156 1.471368 C -2.388979 1.451576 -2.482719 1.423451 -2.574376 1.385951 C -2.664992 1.348451 -2.751441 1.301576 -2.833724 1.247409 C -2.914966 1.192201 -2.990999 1.130743 -3.060784 1.060951 C -3.130568 0.991159 -3.19202 0.915118 -3.247222 0.833868 C -3.302425 0.751576 -3.348253 0.665118 -3.385749 0.574493 C -3.423246 0.482826 -3.452409 0.389076 -3.471157 0.292201 C -3.489905 0.196368 -3.500321 0.0984509 -3.500321 -0.000507433 C -3.500321 -0.0984241 -3.489905 -0.196341 -3.471157 -0.292174 C -3.452409 -0.389049 -3.423246 -0.482799 -3.385749 -0.574466 C -3.348253 -0.665091 -3.302425 -0.751549 -3.247222 -0.833841 C -3.19202 -0.915091 -3.130568 -0.991132 -3.060784 -1.060924 C -2.990999 -1.130716 -2.914966 -1.192174 -2.833724 -1.247383 C -2.751441 -1.301549 -2.664992 -1.348424 -2.574376 -1.385924 C -2.482719 -1.423424 -2.388979 -1.451549 -2.293156 -1.471341 C -2.196291 -1.490091 -2.098384 -1.500508 -2.000478 -1.500508 C -1.90153 -1.500508 -1.803624 -1.490091 -1.7078 -1.471341 C -1.610936 -1.451549 -1.517195 -1.423424 -1.425538 -1.385924 C -1.334923 -1.348424 -1.248474 -1.301549 -1.166191 -1.247383 C -1.084949 -1.192174 -1.008915 -1.130716 -0.939131 -1.060924 C -0.869347 -0.991132 -0.807895 -0.915091 -0.752692 -0.833841 C -0.698531 -0.751549 -0.651661 -0.665091 -0.614165 -0.574466 C -0.576669 -0.482799 -0.548547 -0.389049 -0.528757 -0.292174 C -0.510009 -0.196341 -0.499594 -0.0984241 -0.499594 -0.000507433 Z M -0.499594 -0.000507433 " stroke="#000000" stroke-width="1" stroke-opacity="1" stroke-miterlimit="4"/><g fill="#000000" fill-opacity="1"><g transform="translate(55.983474, 308.268527)"><g><path d="M 7.355469 -210.664062 C 20.300781 -210.664062 26.773438 -209.484375 31.777344 -201.542969 L 31.777344 -20.007812 C 31.777344 -4.414062 25.007812 -3.824219 10.886719 -3.824219 L 10.886719 0 L 56.492188 0 L 56.492188 -3.824219 C 42.664062 -3.824219 35.894531 -4.414062 35.601562 -19.125 L 35.601562 -193.890625 C 35.894531 -193.304688 36.1875 -192.421875 36.484375 -191.832031 L 110.332031 0 L 114.453125 0 L 190.363281 -203.011719 L 190.363281 -20.007812 C 190.363281 -4.414062 183.59375 -3.824219 169.472656 -3.824219 L 169.472656 0 L 243.617188 0 L 243.617188 -3.824219 C 229.492188 -3.824219 222.726562 -4.414062 222.726562 -20.007812 L 222.726562 -195.65625 C 223.019531 -210.074219 229.785156 -210.664062 243.617188 -210.664062 L 243.617188 -214.488281 L 190.363281 -214.488281 L 127.398438 -45.898438 L 61.492188 -214.488281 L 7.355469 -214.488281 Z M 7.355469 -210.664062 "/></g></g></g><g clip-path="url(#id1)"><path fill="#000000" d="M 321.667969 282.863281 C 314.417969 282.863281 308.542969 288.738281 308.542969 295.988281 C 308.542969 303.238281 314.417969 309.113281 321.667969 309.113281 C 328.917969 309.113281 334.792969 303.238281 334.792969 295.988281 C 334.792969 288.738281 328.917969 282.863281 321.667969 282.863281 " fill-opacity="1" fill-rule="nonzero"/></g></svg>